<svg xmlns="http://www.w3.org/2000/svg" id="Layer_2" viewBox="0 0 51.13 47.27"><defs><style>.cls-1{stroke-width:.2px;}.cls-1,.cls-2{fill:#f9b15c;stroke:#f9b15c;stroke-miterlimit:10;}.cls-2{stroke-width:.21px;}</style></defs><g id="Layer_19"><path class="cls-1" d="M17.68,9.03c.32.57.36,1.27.22,1.99-.17.89-.46,1.76-.73,2.62-.32,1.04-.66,2.07-1,3.11,0,.02-.01.03-.02.05-.04.14-.12.23-.27.22-.15-.01-.21-.12-.23-.26-.16-1.05-.31-2.1-.44-3.15-.1-.89-.21-1.79-.21-2.69,0-.56.08-1.11.3-1.64.17-.41.42-.76.84-.93.54-.23,1.12.02,1.53.69Z"></path><path class="cls-2" d="M47.29,46.88c-1.28-.3-2.53-.68-3.78-1.07-1.18-.36-2.34-.74-3.51-1.13-1.17-.39-2.34-.8-3.5-1.2-.97-.34-1.94-.69-2.91-1.03-.04-.02-.09-.03-.13-.05-.17-.06-.26-.16-.22-.32.04-.15.17-.19.33-.17.4.03.79.06,1.19.1,1.63.15,3.26.3,4.89.46,1.49.15,2.97.32,4.45.52,1.5.21,3,.42,4.48.77.72.17,1.38.45,1.9.95.38.37.6.79.53,1.28-.09.59-.53.91-1.14,1.06-.62.16-1.25.11-1.88-.02-.23-.05-.47-.11-.7-.16Z"></path><path class="cls-1" d="M41.78,32.34c-.27.47-.71.72-1.2.9-.72.26-1.47.29-2.22.29-1.62,0-3.24-.1-4.85-.22-.14-.01-.25-.06-.28-.21-.03-.15.06-.24.19-.29,1.79-.74,3.57-1.51,5.41-2.13.63-.21,1.27-.28,1.92-.11.35.09.66.25.89.54.31.38.34.79.13,1.23Z"></path><path class="cls-2" d="M35.65,15.35c-.92.93-1.9,1.81-2.88,2.67-.92.81-1.85,1.61-2.8,2.4-.95.79-1.9,1.58-2.85,2.37-.8.65-1.6,1.3-2.4,1.94-.04.03-.07.06-.11.09-.14.11-.27.14-.38.02-.11-.11-.07-.24.02-.37.23-.32.46-.65.7-.96.98-1.31,1.95-2.63,2.94-3.94.9-1.19,1.82-2.37,2.77-3.53.96-1.18,1.92-2.35,2.99-3.42.52-.52,1.1-.94,1.8-1.12.51-.13.99-.1,1.37.21.46.38.5.93.32,1.53-.18.61-.56,1.12-1,1.59-.16.17-.33.34-.5.52Z"></path><path class="cls-2" d="M3.69,2.92c.41,1.25.74,2.51,1.06,3.78.3,1.19.59,2.39.86,3.58.27,1.2.54,2.41.8,3.62.22,1.01.42,2.01.63,3.02,0,.05.02.09.03.14.04.17,0,.3-.16.35-.15.05-.25-.04-.32-.19-.18-.36-.36-.71-.54-1.07-.72-1.47-1.45-2.94-2.16-4.42-.65-1.35-1.27-2.7-1.87-4.07-.61-1.39-1.21-2.78-1.68-4.23C.13,2.74.02,2.03.18,1.32.3.81.54.4,1,.2c.55-.23,1.05-.02,1.5.42.46.44.74,1.01.96,1.62.08.23.15.45.23.68Z"></path></g></svg>